<svg data-v-0dd9719b="" version="1.0" xmlns="http://www.w3.org/2000/svg" xmlns:xlink="http://www.w3.org/1999/xlink" width="100%" height="100%" viewBox="0 0 340.000000 250.000000" preserveAspectRatio="xMidYMid meet" color-interpolation-filters="sRGB" style="margin: auto;"> <rect data-v-0dd9719b="" x="0" y="0" width="100%" height="100%" fill="#ffffff" fill-opacity="1" class="background"></rect> <rect data-v-0dd9719b="" x="0" y="0" width="100%" height="100%" fill="url(#watermark)" fill-opacity="1" class="watermarklayer"></rect> <g data-v-0dd9719b="" fill="#363383" class="icon-text-wrapper icon-svg-group iconsvg" transform="translate(56.13201141357422,100.48686122894287)"><g fill="#FF3938" class="iconsvg-imagesvg icon_container" transform="translate(0,0)"><rect fill="#363383" fill-opacity="0" stroke-width="2" x="0" y="0" width="60.75282308657465" height="60.75282308657465" class="image-rect"></rect> <svg viewBox="0 0 60 60" x="0" y="0" width="60.75282308657465" height="60.75282308657465" class="image-svg-svg bn" style="overflow: visible;"><g hollow-target="iconBnFill" mask="url(#099ab4d0-590c-4b19-9734-272d66017f37)"><g><svg fill="#000000" xmlns="http://www.w3.org/2000/svg" xmlns:xlink="http://www.w3.org/1999/xlink" viewBox="0 0 64 64" version="1.1" x="0" y="0" style="overflow: visible;" width="60" height="60" filtersec="colorsf8696836690" filter="url(#WECS90eBN_AmN-rve2Hr-)"><g transform="scale(1, 1) skewX(0)"><title>30</title><desc>Created with Sketch.</desc><g fill-rule="evenodd"><g fill="#000000"><path d="M64,32 L64,64 L32.0000097,64 C14.326888,64 0,49.673112 0,32 C0,14.326888 14.326888,0 32,0 C49.673112,0 64,14.326888 64,32 Z"></path></g></g></g><defs><filter id="WECS90eBN_AmN-rve2Hr-"><feColorMatrix type="matrix" values="0 0 0 0 0.99609375  0 0 0 0 0.22265625  0 0 0 0 0.21875  0 0 0 1 0"></feColorMatrix></filter></defs></svg></g> <g filter="url(#colors2475653260)"><svg xmlns="http://www.w3.org/2000/svg" xmlns:xlink="http://www.w3.org/1999/xlink" viewBox="0 0 49.22377232142857 53.015625" width="35.1" height="35.1" x="12.45" y="12.45" class="image-svg-letter"><path transform="translate(-1.3359375 53.015625)" d="M1.34-1.27Q1.34-0.42 1.55-0.21Q1.76 0 10.05 0L10.05 0Q18.14 0 18.63-0.35L18.63-0.35Q18.84-0.42 18.84-1.27L18.84-1.27Q18.84-2.18 18.49-2.39Q18.14-2.60 16.38-2.88L16.38-2.88Q13.64-3.30 13.36-3.73L13.36-3.73Q12.87-4.50 15.19-8.51L15.19-8.51Q15.54-9.07 17.79-12.87L17.79-12.87Q22.57-20.81 23.41-21.45L23.41-21.45Q23.91-21.87 24.68-21.02L24.68-21.02Q25.03-20.60 29.43-13.04Q33.82-5.48 33.89-5.06L33.89-5.06Q34.24-3.94 33.61-3.55Q32.98-3.16 30.23-2.81L30.23-2.81Q28.48-2.60 28.13-2.39Q27.77-2.18 27.77-1.27L27.77-1.27Q27.77-0.42 27.98-0.28L27.98-0.28Q29.04 0 39.23 0L39.23 0Q40.71 0 43.17 0L43.17 0Q48.80 0 49.71-0.11Q50.63-0.21 50.55-0.98L50.55-0.98Q50.55-1.20 50.55-1.34L50.55-1.34Q50.55-2.32 50.27-2.46Q49.99-2.60 47.53-2.88L47.53-2.88Q45.35-3.09 44.79-3.52L44.79-3.52Q43.17-4.64 38.60-12.52L38.60-12.52Q37.13-15.12 30.23-27.21L30.23-27.21Q29.11-29.18 29.53-30.38L29.53-30.38Q29.67-30.73 34.84-38.74Q40.01-46.76 40.85-48.02L40.85-48.02Q41.55-49.01 42.43-49.39Q43.31-49.78 45.84-50.13L45.84-50.13Q48.66-50.48 48.80-50.84L48.80-50.84Q48.94-51.05 48.94-51.75L48.94-51.75Q48.94-52.59 48.59-52.73L48.59-52.73Q47.88-53.02 39.94-53.02L39.94-53.02Q33.61-52.95 32.45-52.80Q31.29-52.66 31.22-51.82L31.22-51.82Q31.22-50.84 31.50-50.63Q31.78-50.41 33.75-50.13L33.75-50.13Q36.63-49.71 36.91-49.22L36.91-49.22Q37.48-48.52 35.09-44.51L35.09-44.51Q34.73-43.95 32.84-40.78L32.84-40.78Q28.62-33.75 27.77-33.33L27.77-33.33Q27.42-33.12 26.86-33.54L26.86-33.54Q26.51-33.75 23.06-39.59Q19.62-45.42 18.56-47.53L18.56-47.53Q17.86-48.87 18.46-49.39Q19.05-49.92 21.66-50.20L21.66-50.20Q23.91-50.48 24.19-50.63Q24.47-50.77 24.47-51.75L24.47-51.75Q24.40-52.45 23.70-52.66L23.70-52.66Q22.43-52.95 13.15-53.02L13.15-53.02Q2.46-53.02 1.83-52.66L1.83-52.66Q1.62-52.59 1.62-51.75L1.62-51.75Q1.62-50.84 1.90-50.63Q2.18-50.41 3.80-50.27L3.80-50.27Q6.61-49.99 7.56-49.64Q8.51-49.29 9.14-48.23L9.14-48.23Q10.05-46.62 15.68-36.84Q21.30-27.07 21.52-26.58L21.52-26.58Q22.01-25.52 21.73-24.75L21.73-24.75Q21.38-23.70 15.47-14.55L15.47-14.55Q9.63-5.55 8.86-4.64L8.86-4.64Q7.73-3.38 5.84-3.16L5.84-3.16Q4.15-2.95 4.15-2.95L4.15-2.95Q1.62-2.60 1.55-2.39L1.55-2.39Q1.34-2.11 1.34-1.27Z"></path></svg></g></g><mask id="099ab4d0-590c-4b19-9734-272d66017f37"><g fill="white"><svg xmlns="http://www.w3.org/2000/svg" xmlns:xlink="http://www.w3.org/1999/xlink" viewBox="0 0 64 64" version="1.1" x="0" y="0" style="overflow: visible;" width="60" height="60" filtersec="colorsf8696836690"><g transform="scale(1, 1) skewX(0)"><title>30</title><desc>Created with Sketch.</desc><g fill-rule="evenodd"><g><path d="M64,32 L64,64 L32.0000097,64 C14.326888,64 0,49.673112 0,32 C0,14.326888 14.326888,0 32,0 C49.673112,0 64,14.326888 64,32 Z"></path></g></g></g><defs></defs></svg></g> <g fill="black"><svg xmlns="http://www.w3.org/2000/svg" xmlns:xlink="http://www.w3.org/1999/xlink" viewBox="0 0 49.22377232142857 53.015625" width="35.1" height="35.1" x="12.45" y="12.45" class="image-svg-letter"><path transform="translate(-1.3359375 53.015625)" d="M1.34-1.27Q1.34-0.42 1.55-0.21Q1.76 0 10.05 0L10.05 0Q18.14 0 18.63-0.35L18.63-0.35Q18.84-0.42 18.84-1.27L18.84-1.27Q18.84-2.18 18.49-2.39Q18.14-2.60 16.38-2.88L16.38-2.88Q13.64-3.30 13.36-3.73L13.36-3.73Q12.87-4.50 15.19-8.51L15.19-8.51Q15.54-9.07 17.79-12.87L17.79-12.87Q22.57-20.81 23.41-21.45L23.41-21.45Q23.91-21.87 24.68-21.02L24.68-21.02Q25.03-20.60 29.43-13.04Q33.82-5.48 33.89-5.06L33.89-5.06Q34.24-3.94 33.61-3.55Q32.98-3.16 30.23-2.81L30.23-2.81Q28.48-2.60 28.13-2.39Q27.77-2.18 27.77-1.27L27.77-1.27Q27.77-0.42 27.98-0.28L27.98-0.28Q29.04 0 39.23 0L39.23 0Q40.71 0 43.17 0L43.17 0Q48.80 0 49.71-0.11Q50.63-0.21 50.55-0.98L50.55-0.98Q50.55-1.20 50.55-1.34L50.55-1.34Q50.55-2.32 50.27-2.46Q49.99-2.60 47.53-2.88L47.53-2.88Q45.35-3.09 44.79-3.52L44.79-3.52Q43.17-4.64 38.60-12.52L38.60-12.52Q37.13-15.12 30.23-27.21L30.23-27.21Q29.11-29.18 29.53-30.38L29.53-30.38Q29.67-30.73 34.84-38.74Q40.01-46.76 40.85-48.02L40.85-48.02Q41.55-49.01 42.43-49.39Q43.31-49.78 45.84-50.13L45.84-50.13Q48.66-50.48 48.80-50.84L48.80-50.84Q48.94-51.05 48.94-51.75L48.94-51.75Q48.94-52.59 48.59-52.73L48.59-52.73Q47.88-53.02 39.94-53.02L39.94-53.02Q33.61-52.95 32.45-52.80Q31.29-52.66 31.22-51.82L31.22-51.82Q31.22-50.84 31.50-50.63Q31.78-50.41 33.75-50.13L33.75-50.13Q36.63-49.71 36.91-49.22L36.91-49.22Q37.48-48.52 35.09-44.51L35.09-44.51Q34.73-43.95 32.84-40.78L32.84-40.78Q28.62-33.75 27.77-33.33L27.77-33.33Q27.42-33.12 26.86-33.54L26.86-33.54Q26.51-33.75 23.06-39.59Q19.62-45.42 18.56-47.53L18.56-47.53Q17.86-48.87 18.46-49.39Q19.05-49.92 21.66-50.20L21.66-50.20Q23.91-50.48 24.19-50.63Q24.47-50.77 24.47-51.75L24.47-51.75Q24.40-52.45 23.70-52.66L23.70-52.66Q22.43-52.95 13.15-53.02L13.15-53.02Q2.46-53.02 1.83-52.66L1.83-52.66Q1.62-52.59 1.62-51.75L1.62-51.75Q1.62-50.84 1.90-50.63Q2.18-50.41 3.80-50.27L3.80-50.27Q6.61-49.99 7.56-49.64Q8.51-49.29 9.14-48.23L9.14-48.23Q10.05-46.62 15.68-36.84Q21.30-27.07 21.52-26.58L21.52-26.58Q22.01-25.52 21.73-24.75L21.73-24.75Q21.38-23.70 15.47-14.55L15.47-14.55Q9.63-5.55 8.86-4.64L8.86-4.64Q7.73-3.38 5.84-3.16L5.84-3.16Q4.15-2.95 4.15-2.95L4.15-2.95Q1.62-2.60 1.55-2.39L1.55-2.39Q1.34-2.11 1.34-1.27Z"></path></svg></g></mask></svg> <defs><filter id="colors2475653260"><feColorMatrix type="matrix" values="0 0 0 0 0.2109375  0 0 0 0 0.19921875  0 0 0 0 0.51171875  0 0 0 1 0" class="icon-fecolormatrix"></feColorMatrix></filter> <filter id="colorsf8696836690"><feColorMatrix type="matrix" values="0 0 0 0 0.99609375  0 0 0 0 0.99609375  0 0 0 0 0.99609375  0 0 0 1 0" class="icon-fecolormatrix"></feColorMatrix></filter> <filter id="colorsb316094056"><feColorMatrix type="matrix" values="0 0 0 0 0  0 0 0 0 0  0 0 0 0 0  0 0 0 1 0" class="icon-fecolormatrix"></feColorMatrix></filter></defs></g> <g transform="translate(65.75282287597656,3.529369354248047)"><g data-gra="path-name" fill-rule="" class="tp-name iconsvg-namesvg" transform="translate(0,0)"><g transform="scale(1)"><g><path d="M5.21 3.26L5.21 3.26Q5.9 3.42 7 3.11 8.1 2.81 8.5 2.36L8.5 2.36Q8.71 2.16 8.67 0.98L8.67 0.98Q8.67-0.04 8.77-0.33 8.87-0.61 9.28-0.77L9.28-0.77Q9.64-0.94 20.91-0.92 32.19-0.9 32.51-0.73L32.51-0.73Q32.92-0.57 33-0.22 33.08 0.12 33.04 1.3L33.04 1.3Q33 2.77 33.45 3.07 33.89 3.38 35.44 2.89L35.44 2.89Q36.74 2.48 36.99 2.05 37.23 1.63 37.15 0L37.15 0Q36.95-3.54 36.89-11.94 36.82-20.35 36.99-20.96L36.99-20.96Q37.11-21.57 37.68-21.89L37.68-21.89Q38.45-22.34 38.45-22.6 38.45-22.87 37.72-23.56L37.72-23.56Q37.19-24.09 36.28-24.78 35.36-25.47 35.12-25.55L35.12-25.55Q34.71-25.68 33.89-24.58L33.89-24.58Q33.08-23.52 32.59-23.38 32.1-23.23 29.54-23.23L29.54-23.23Q29.3-23.23 28.81-23.23L28.81-23.23Q26.57-23.23 26.2-23.56L26.2-23.56Q25.84-23.97 25.84-25.8L25.84-25.8Q25.84-26.2 25.84-26.45L25.84-26.45Q25.8-28.97 25.88-29.22L25.88-29.22Q26.08-29.95 27.47-30.07L27.47-30.07Q27.87-30.11 32.55-30.15L32.55-30.15Q37.23-30.19 38.07-30.25 38.9-30.31 39.14-30.64L39.14-30.64Q39.47-31.13 36.62-33.41L36.62-33.41Q35.81-34.02 35.56-34.22 35.32-34.42 34.93-34.36 34.55-34.3 34.36-34.08 34.18-33.85 33.57-33.04L33.57-33.04Q33.41-32.84 33.2-32.51L33.2-32.51Q32.59-31.62 31.41-31.47 30.23-31.33 23.07-31.37L23.07-31.37Q20.14-31.37 18.35-31.37L18.35-31.37Q4.07-31.37 2.77-31.62L2.77-31.62Q2.44-31.66 2.42-31.51 2.4-31.37 2.73-30.8L2.73-30.8Q3.17-29.87 3.38-29.76 3.58-29.66 4.8-29.83L4.8-29.83Q6.96-30.11 10.31-30.17 13.67-30.23 14.08-30.03L14.08-30.03Q14.4-29.83 14.49-29.36 14.57-28.89 14.57-26.73L14.57-26.73Q14.57-23.93 14.28-23.58 14-23.23 11.6-23.23L11.6-23.23Q9.72-23.23 9.18-23.36 8.63-23.48 6.59-24.29L6.59-24.29Q4.72-25.02 4.56-24.94L4.56-24.94Q4.44-24.86 4.56-23.89L4.56-23.89Q4.88-20.02 4.86-12 4.84-3.99 4.64-0.28L4.64-0.28Q4.56 1.06 4.54 1.63 4.52 2.2 4.58 2.62 4.64 3.05 4.76 3.11 4.88 3.17 5.21 3.26ZM32.59-2.2L32.59-2.2Q32.31-1.99 20.83-2.03 9.36-2.08 9.07-2.28L9.07-2.28Q8.75-2.48 8.61-3.58 8.46-4.68 8.61-5.68 8.75-6.67 9.07-6.59L9.07-6.59Q9.28-6.55 10.48-7.28 11.68-8.02 12.45-8.67L12.45-8.67Q15.06-10.74 16.4-13.49 17.74-16.24 18.07-20.18L18.07-20.18Q18.19-21.57 18.47-21.81 18.76-22.05 20.18-22.09L20.18-22.09Q20.35-22.09 20.63-22.09L20.63-22.09Q21.81-22.14 22.05-21.77L22.05-21.77Q22.34-21.32 22.34-17.9L22.34-17.9Q22.34-17.21 22.34-16.85L22.34-16.85Q22.34-11.64 22.62-10.7L22.62-10.7Q22.95-9.6 24.29-9.44L24.29-9.44Q24.82-9.36 26.77-9.36L26.77-9.36Q29.26-9.36 30.33-9.58 31.41-9.81 32.15-10.42L32.15-10.42Q32.76-10.95 32.88-10.74L32.88-10.74Q33.04-10.46 33.08-6.67L33.08-6.67Q33.08-3.58 33.02-3.01 32.96-2.44 32.59-2.2ZM10.25-8.5L10.25-8.5Q9.24-7.36 8.99-7.61L8.99-7.61Q8.59-7.93 8.59-13.26L8.59-13.26Q8.59-13.88 8.59-14.89L8.59-14.89Q8.59-15.63 8.59-16.85L8.59-16.85Q8.54-21 8.87-21.61L8.87-21.61Q9.16-22.14 10.38-22.14L10.38-22.14Q10.5-22.14 10.74-22.09L10.74-22.09Q11.31-22.09 11.64-22.09L11.64-22.09Q14.08-22.09 14.38-21.67 14.69-21.24 14.36-18.35L14.36-18.35Q13.71-12.49 10.25-8.5ZM32.92-12.53L32.92-12.53Q32.71-12.13 32.27-12.53L32.27-12.53Q31.7-13.06 31.51-13.79 31.33-14.53 31.33-16.44L31.33-16.44Q31.33-17.54 31.21-17.66L31.21-17.66Q31.01-17.82 30.84-17.29L30.84-17.29Q30.72-16.97 30.48-15.91L30.48-15.91Q29.99-13.83 29.58-13.39 29.17-12.94 27.79-12.94L27.79-12.94Q27.71-12.94 27.55-12.94L27.55-12.94Q26.37-12.94 26.16-13.31L26.16-13.31Q25.88-13.71 25.84-16.85L25.84-16.85Q25.84-17.21 25.84-17.37L25.84-17.37Q25.84-17.82 25.84-18.55L25.84-18.55Q25.8-21.24 26.14-21.69 26.49-22.14 28.56-22.09L28.56-22.09Q29.13-22.09 29.46-22.09L29.46-22.09Q31.82-22.09 32.29-22.01 32.76-21.93 32.96-21.53L32.96-21.53Q33.12-21.2 33.1-17.01 33.08-12.82 32.92-12.53ZM21.77-23.4L21.77-23.4Q21.44-23.23 20.26-23.21 19.08-23.19 18.76-23.36L18.76-23.36Q18.39-23.56 18.29-24.03 18.19-24.5 18.15-26.45L18.15-26.45Q18.11-29.26 18.35-29.68 18.6-30.11 20.18-30.15L20.18-30.15Q21.85-30.19 22.09-29.81 22.34-29.42 22.34-26.73L22.34-26.73Q22.34-24.54 22.26-24.07 22.18-23.6 21.77-23.4ZM44.03 3.3L44.03 3.3 44.19 3.42Q44.6 3.42 49.15 2.77L49.15 2.77Q59.08 1.14 64.25-2.77L64.25-2.77Q65.19-3.42 65.63-3.38 66.08-3.34 67.55-2.52L67.55-2.52Q72.02 0.04 74.79 2.64L74.79 2.64Q76.21 3.91 77.43 3.23 78.65 2.56 78.08 0.81L78.08 0.81Q77.56-0.81 75.42-2.46 73.28-4.11 70.11-5.37L70.11-5.37Q68.56-5.98 68.36-6.33 68.16-6.67 68.77-7.69L68.77-7.69Q70.56-10.58 71.74-15.1L71.74-15.1Q71.78-15.3 71.9-15.67L71.9-15.67Q72.22-16.93 72.63-17.13L72.63-17.13Q73.08-17.42 75.6-17.42L75.6-17.42Q76.21-17.42 76.54-17.42L76.54-17.42Q78.29-17.42 79.12-17.5 79.96-17.58 80.51-17.72 81.05-17.86 80.83-18.25 80.61-18.64 80.12-19.12 79.63-19.61 78.49-20.55L78.49-20.55Q77.68-21.2 77.47-21.38 77.27-21.57 76.88-21.55 76.5-21.53 76.38-21.32 76.25-21.12 75.68-20.39L75.68-20.39Q75.56-20.18 75.32-19.9L75.32-19.9Q74.63-18.92 73.89-18.76 73.16-18.6 69.38-18.6L69.38-18.6Q68.16-18.6 67.42-18.6L67.42-18.6Q62.34-18.6 61.46-18.66 60.59-18.72 60.42-19L60.42-19Q60.18-19.45 61.24-22.09 62.3-24.74 62.7-24.74L62.7-24.74Q62.83-24.74 63.03-24.94 63.23-25.15 63.23-25.23L63.23-25.23Q63.23-25.59 60.71-26.25 58.19-26.9 58.11-26.57L58.11-26.57Q58.11-26.45 57.86-25.31L57.86-25.31Q57.41-23.03 56.72-21.06 56.03-19.08 55.58-18.8L55.58-18.8Q55.26-18.6 51.19-18.6 47.12-18.6 44.84-18.84L44.84-18.84Q44.11-18.88 44.07-18.76 44.03-18.64 44.47-17.82L44.47-17.82Q44.84-17.05 45.08-16.99 45.33-16.93 46.75-17.13L46.75-17.13Q49.76-17.5 52.29-17.46 54.81-17.42 54.89-16.97L54.89-16.97Q55.01-16.48 53.79-13.57 52.57-10.66 51.29-7.95 50.01-5.25 50.05-5.21L50.05-5.21Q50.21-4.72 52.37-4.72L52.37-4.72Q53.47-4.72 53.73-4.88 54-5.05 54.48-6.1L54.48-6.1Q55.14-7.45 55.56-7.57 55.99-7.69 57.54-7.12L57.54-7.12Q59.33-6.51 60.16-6.14 60.99-5.78 61.36-5.41 61.73-5.05 61.54-4.74 61.36-4.44 60.71-3.91L60.71-3.91Q58.19-1.79 53.89-0.02 49.6 1.75 44.76 2.69L44.76 2.69Q43.9 2.85 43.9 3.09L43.9 3.09Q43.9 3.17 44.03 3.3ZM64.01-7.65L64.01-7.65Q63.52-7.36 62.22-7.65L62.22-7.65Q59.49-8.26 57.37-8.5L57.37-8.5Q56.32-8.63 56.19-9.03L56.19-9.03Q56.07-9.56 57.58-13.1L57.58-13.1Q57.62-13.18 57.66-13.26L57.66-13.26Q58.76-15.83 59.08-16.46 59.41-17.09 59.77-17.29L59.77-17.29Q60.22-17.5 63.76-17.44 67.3-17.37 67.5-17.17L67.5-17.17Q68.2-16.48 66.69-12.35 65.19-8.22 64.01-7.65ZM45.82-21.61L45.82-21.61Q47.28-21.16 48.58-22.48 49.89-23.8 50.17-26.12L50.17-26.12Q50.29-27.22 50.74-27.47L50.74-27.47Q51.03-27.59 62.62-27.61 74.22-27.63 74.5-27.47L74.5-27.47Q74.95-27.26 74.87-26.67 74.79-26.08 74.14-24.25L74.14-24.25Q73.49-22.42 73.57-22.34L73.57-22.34Q73.57-22.3 73.65-22.26L73.65-22.26Q73.85-22.14 75.2-23.13 76.54-24.13 78.08-25.55L78.08-25.55Q79.43-26.77 80.2-26.98L80.2-26.98Q80.89-27.14 80.89-27.43L80.89-27.43Q80.89-27.79 79.43-29.3L79.43-29.3Q77.96-30.8 77.58-30.88 77.19-30.97 76.17-29.95L76.17-29.95Q75.24-29.05 74.87-28.93L74.87-28.93Q74.14-28.77 69.82-28.77L69.82-28.77Q69.42-28.77 68.73-28.77L68.73-28.77Q65.19-28.77 64.7-29.05L64.7-29.05Q64.33-29.3 64.37-30.48L64.37-30.48Q64.37-30.76 64.37-30.92L64.37-30.92Q64.37-32.1 64.47-32.43 64.58-32.76 65.02-33.2L65.02-33.2Q65.59-33.65 64.98-33.98L64.98-33.98Q63.72-34.67 61.08-35.12L61.08-35.12Q60.1-35.24 60.14-35.07L60.14-35.07Q60.22-34.99 60.32-33.3 60.42-31.62 60.42-30.76L60.42-30.76Q60.42-30.64 60.42-30.44L60.42-30.44Q60.47-29.26 60.1-29.05L60.1-29.05Q59.61-28.77 56.11-28.77L56.11-28.77Q55.54-28.77 55.26-28.77L55.26-28.77Q54.89-28.77 54.24-28.77L54.24-28.77Q51.15-28.77 50.6-28.93 50.05-29.09 49.8-30.11L49.8-30.11Q49.76-30.23 49.76-30.31L49.76-30.31Q49.44-31.7 49.11-31.62L49.11-31.62Q48.87-31.53 48.79-30.68L48.79-30.68Q48.58-27.63 45.65-25.39L45.65-25.39Q44.51-24.5 44.58-23.23 44.64-21.97 45.82-21.61ZM91.67 3.26L91.67 3.26Q92.29 3.62 93.81 3.17 95.34 2.73 95.46 2.16L95.46 2.16Q95.54 1.87 95.42-0.24L95.42-0.24Q95.34-2.03 95.28-7.73 95.21-13.43 95.3-13.71L95.3-13.71Q95.5-14.89 96.8-13.51L96.8-13.51Q97.9-12.41 98.96-10.29L98.96-10.29Q100.02-8.14 101.36-8.87L101.36-8.87Q102.66-9.56 102.23-11.19 101.81-12.82 99.93-14.12L99.93-14.12Q98.96-14.81 99.08-15.18 99.2-15.54 100.67-16.68L100.67-16.68Q102.38-17.99 102.82-17.99L102.82-17.99Q104.41-17.99 101.36-20.02L101.36-20.02Q100.38-20.67 100.2-20.67 100.02-20.67 99.73-19.94L99.73-19.94Q98.63-17.25 97.8-16.32 96.96-15.38 96.03-15.79L96.03-15.79Q95.34-16.07 95.4-16.6 95.46-17.13 96.27-18.19L96.27-18.19Q97.66-19.9 98.31-20.96L98.31-20.96Q99.28-22.5 100.55-24.66L100.55-24.66Q100.99-25.39 101.85-25.63L101.85-25.63Q102.46-25.84 102.54-26.02 102.62-26.2 102.25-26.65L102.25-26.65Q101.97-27.02 101.87-27.3 101.77-27.59 101.83-27.75 101.89-27.91 102.13-27.91L102.13-27.91 102.62-27.99Q103.15-28.08 103.47-28.16L103.47-28.16Q106.04-28.65 106.81-28.28 107.58-27.91 107.58-26.25L107.58-26.25Q107.58-16.4 105.24-9.54 102.91-2.69 97.94 2.08L97.94 2.08Q97.21 2.77 97.09 2.95 96.96 3.13 97.13 3.26L97.13 3.26Q97.53 3.66 100.18 1.77 102.82-0.12 104.49-2.03L104.49-2.03Q107.95-5.98 109.44-11.07 110.92-16.15 111.37-25.35L111.37-25.35Q111.45-27.79 111.78-28.08 112.1-28.36 114.58-28.36L114.58-28.36Q116.82-28.36 117.07-28.24L117.07-28.24Q117.68-27.99 117.68-26.33L117.68-26.33Q117.68-26.29 117.59-23.52L117.59-23.52Q117.15-4.48 115.28-2.4L115.28-2.4Q114.75-1.83 113.89-1.75 113.04-1.67 110.27-1.91L110.27-1.91Q108.72-2.03 108.48-2.01 108.24-1.99 108.24-1.75L108.24-1.75Q108.24-1.55 108.76-1.38L108.76-1.38Q111.21-0.69 111.98 0 112.75 0.69 113 2.4L113 2.4Q113.16 2.89 113.93 2.91 114.71 2.93 115.87 2.42 117.02 1.91 117.76 1.18L117.76 1.18Q119.38-0.45 120.14-5.15 120.89-9.85 121.18-20.02L121.18-20.02Q121.34-26.9 121.5-27.38L121.5-27.38Q121.62-27.71 122.07-27.91L122.07-27.91Q122.15-27.91 122.19-27.95L122.19-27.95Q123.05-28.36 122.9-28.83 122.76-29.3 121.42-30.56L121.42-30.56Q120.56-31.29 120.3-31.53 120.04-31.78 119.65-31.82 119.26-31.86 119.08-31.66 118.9-31.45 118.37-30.84L118.37-30.84Q118.25-30.72 118.08-30.48L118.08-30.48Q117.51-29.83 116.86-29.7L116.86-29.7Q116.17-29.58 112.22-29.62L112.22-29.62Q110.8-29.62 109.94-29.62L109.94-29.62Q103.03-29.62 102.05-29.74L102.05-29.74Q100.95-29.87 100.95-29.66L100.95-29.66Q100.95-29.54 101.11-29.3L101.11-29.3Q101.52-28.48 101.26-28.34 100.99-28.2 100.1-28.77L100.1-28.77Q99.32-29.22 99.1-29.17 98.88-29.13 98.02-28.36L98.02-28.36Q97.13-27.47 96.62-27.24 96.11-27.02 95.7-27.3L95.7-27.3Q95.13-27.67 95.24-30.09 95.34-32.51 95.91-32.88L95.91-32.88Q96.88-33.41 94.65-34.14L94.65-34.14Q94.12-34.34 93.34-34.55L93.34-34.55Q91.47-35.03 91.35-34.91L91.35-34.91Q91.23-34.83 91.31-33.98L91.31-33.98Q91.43-32.67 91.51-32.04 91.59-31.41 91.63-30.54 91.67-29.66 91.7-29.32 91.72-28.97 91.57-28.44 91.43-27.91 91.33-27.77 91.23-27.63 90.88-27.4 90.54-27.18 90.29-27.16 90.05-27.14 89.44-27.12 88.83-27.1 88.36-27.14 87.89-27.18 86.95-27.26L86.95-27.26Q85.98-27.34 85.92-27.28 85.86-27.22 86.18-26.53L86.18-26.53Q86.63-25.63 86.75-25.57 86.87-25.51 87.57-25.59L87.57-25.59Q90.13-25.92 93.14-25.96L93.14-25.96Q96.07-26.04 96.37-25.68 96.68-25.31 95.62-23.19L95.62-23.19Q93.91-19.73 91.27-16.17 88.62-12.61 85.98-10.13L85.98-10.13Q85.04-9.24 85.25-8.99L85.25-8.99Q85.65-8.59 89.27-11.39L89.27-11.39Q90.41-12.29 90.88-12.43 91.35-12.57 91.51-12.08L91.51-12.08Q91.67-11.64 91.59-7.24 91.51-2.85 91.31 0.81L91.31 0.81Q91.23 2.32 91.29 2.71 91.35 3.09 91.67 3.26ZM144.12 3.5L144.12 3.5Q145.55 3.78 146.77 2.97 147.99 2.16 147.95 0.98L147.95 0.98Q147.79-2.36 147.71-6.9 147.62-11.43 147.75-11.84L147.75-11.84Q147.91-12.29 148.07-12.33L148.07-12.33Q148.52-12.53 156.09-12.57L156.09-12.57Q164.27-12.61 164.39-13.14L164.39-13.14Q164.59-13.79 161.46-16.11L161.46-16.11Q160.28-17.01 159.97-16.95 159.67-16.89 158.65-15.58L158.65-15.58Q158.49-15.38 158.24-15.06L158.24-15.06Q157.51-14.08 156.94-13.92 156.37-13.75 153.73-13.75L153.73-13.75Q153.04-13.75 152.63-13.75L152.63-13.75Q149.05-13.75 148.68-13.83L148.68-13.83Q147.83-14.04 147.71-15.14L147.71-15.14Q147.71-15.34 147.66-18.68L147.66-18.68Q147.66-19.37 147.62-20.47L147.62-20.47Q147.58-22.83 147.95-23.32L147.95-23.32Q148.4-23.93 150.72-23.93L150.72-23.93Q151.16-23.93 152.26-23.93L152.26-23.93Q153.69-23.93 154.58-23.93L154.58-23.93Q159.46-23.97 160.3-24.01 161.13-24.05 161.3-24.37L161.3-24.37 161.34-24.41Q161.46-24.66 160.69-25.51 159.91-26.37 158.61-27.34L158.61-27.34Q157.35-28.28 157.04-28.26 156.74-28.24 155.84-26.98L155.84-26.98Q154.79-25.55 154.42-25.35L154.42-25.35Q153.69-25.07 151.2-25.07L151.2-25.07Q150.92-25.07 150.43-25.07L150.43-25.07Q148.44-25.07 148.07-25.39L148.07-25.39Q147.71-25.76 147.71-27.83L147.71-27.83Q147.71-27.91 147.71-28.04L147.71-28.04Q147.71-28.65 147.71-28.97L147.71-28.97Q147.71-31.53 147.81-32.12 147.91-32.71 148.36-33L148.36-33Q149.17-33.49 147.83-34.02L147.83-34.02Q147.01-34.34 145.06-34.83L145.06-34.83Q143.72-35.16 143.51-35.14 143.31-35.12 143.35-34.59L143.35-34.59Q143.64-32.51 143.72-28.56L143.72-28.56Q143.72-28.32 143.72-27.83L143.72-27.83Q143.8-25.8 143.47-25.43L143.47-25.43Q143.15-25.07 141.11-25.07L141.11-25.07Q141.03-25.07 140.83-25.07L140.83-25.07Q140.34-25.07 140.06-25.07L140.06-25.07Q137.41-25.11 137.02-25.31 136.64-25.51 137.13-26.69L137.13-26.69Q137.65-27.87 138.06-28.85L138.06-28.85Q138.92-30.92 139.49-31.25L139.49-31.25Q139.77-31.41 139.83-31.53 139.89-31.66 139.73-31.8 139.57-31.94 139.16-32.15L139.16-32.15Q138.67-32.39 136.9-33 135.13-33.61 134.64-33.69L134.64-33.69Q134.52-33.69 134.44-33.73 134.36-33.77 134.32-33.65 134.28-33.53 134.24-33.3 134.2-33.08 134.16-32.59L134.16-32.59Q133.38-24.94 129.03-17.46L129.03-17.46Q128.17-15.95 128.74-16.11L128.74-16.11Q129.64-16.32 132.12-19.21L132.12-19.21Q133.38-20.67 134.4-22.14L134.4-22.14Q135.29-23.44 135.62-23.64L135.62-23.64Q136.15-23.93 138.79-23.93L138.79-23.93Q139.24-23.93 139.57-23.93L139.57-23.93Q142.58-23.93 142.9-23.84L142.9-23.84Q143.68-23.64 143.76-22.42L143.76-22.42Q143.76-22.3 143.76-18.88L143.76-18.88Q143.76-15.42 143.68-14.77 143.6-14.12 143.15-13.92L143.15-13.92Q142.74-13.71 136.45-13.75 130.17-13.79 127.93-14L127.93-14Q127.2-14.08 127.14-13.96 127.08-13.83 127.48-13.06L127.48-13.06Q127.85-12.25 128.07-12.17 128.3-12.08 129.48-12.25L129.48-12.25Q132.12-12.57 137.94-12.57L137.94-12.57Q142.21-12.57 142.82-12.51 143.43-12.45 143.64-12.04L143.64-12.04Q143.8-11.64 143.76-7.32 143.72-3.01 143.51 0.53L143.51 0.53Q143.39 2.56 143.47 2.97 143.55 3.38 144.12 3.5Z" transform="translate(-2.4188573360443115, 35.169654846191406)"></path></g> <!----> <!----> <!----> <!----> <!----> <!----> <!----></g></g> <g data-gra="path-slogan" fill-rule="" class="tp-slogan iconsvg-slogansvg" fill="#363383" transform="translate(41.59157943725586,-15.258419036865234)"><!----> <!----> <g transform="scale(1, 1)"><g transform="scale(1)"><path d="M7.64-8.58L4.73-4.41L7.78 0L6.33 0L3.98-3.52L1.64 0L0.23 0L3.33-4.41L0.42-8.58L1.88-8.58L4.03-5.30L6.23-8.58L7.64-8.58ZM9.05-8.58L10.22-8.58L10.22 0L9.05 0L9.05-8.58ZM12.89-5.53L12-5.53L12-8.58L12.89-8.58L12.89-5.53ZM20.11 0L19.27-2.48L15.80-2.48L14.91 0L13.73 0L16.97-8.58L18.28-8.58L21.38 0L20.11 0ZM17.53-7.31L16.17-3.52L18.84-3.52L17.58-7.31L17.53-7.31ZM23.81-8.58L28.13-1.64L28.13-8.58L29.25-8.58L29.25 0L27.94 0L23.58-6.94L23.53-6.94L23.53 0L22.41 0L22.41-8.58L23.81-8.58ZM41.53-6.05L41.53-6.05L40.41-6.05Q39.98-7.78 38.02-7.83L38.02-7.83Q35.30-7.69 35.20-4.36L35.20-4.36Q35.20-0.80 38.06-0.80L38.06-0.80Q40.03-0.84 40.50-3.19L40.50-3.19L41.63-3.19Q41.11 0.05 37.83 0.14L37.83 0.14Q34.08 0 33.98-4.31L33.98-4.31Q34.17-8.63 38.02-8.81L38.02-8.81Q41.06-8.72 41.53-6.05ZM44.16-5.06L48.66-5.06L48.66-8.58L49.83-8.58L49.83 0L48.66 0L48.66-3.98L44.16-3.98L44.16 0L42.98 0L42.98-8.58L44.16-8.58L44.16-5.06ZM57.28-3.19L57.28-8.58L58.45-8.58L58.45-3.05Q58.31 0.05 54.94 0.14L54.94 0.14Q51.80 0.05 51.66-2.86L51.66-2.86L51.66-8.58L52.83-8.58L52.83-3.19Q52.88-0.84 54.98-0.80L54.98-0.80Q57.28-0.84 57.28-3.19L57.28-3.19ZM61.64-8.58L65.95-1.64L65.95-8.58L67.08-8.58L67.08 0L65.77 0L61.41-6.94L61.36-6.94L61.36 0L60.23 0L60.23-8.58L61.64-8.58ZM69.05-8.58L70.22-8.58L70.22 0L69.05 0L69.05-8.58ZM77.86-3.19L77.86-8.58L79.03-8.58L79.03-3.05Q78.89 0.05 75.52 0.14L75.52 0.14Q72.38 0.05 72.23-2.86L72.23-2.86L72.23-8.58L73.41-8.58L73.41-3.19Q73.45-0.84 75.56-0.80L75.56-0.80Q77.86-0.84 77.86-3.19L77.86-3.19Z" transform="translate(-0.234375, 8.8125)"></path></g></g></g></g></g><defs v-gra="od"></defs></svg>